<svg xmlns="http://www.w3.org/2000/svg" xmlns:xlink="http://www.w3.org/1999/xlink" width="500" zoomAndPan="magnify" viewBox="0 0 375 374.999991" height="500" preserveAspectRatio="xMidYMid meet" version="1.2"><defs><clipPath id="7b87c575cb"><path d="M 1 1.027344 L 348.238281 1.027344 L 348.238281 326 L 1 326 Z M 1 1.027344 "/></clipPath><clipPath id="c4e6b7315b"><path d="M 150 161 L 202 161 L 202 233 L 150 233 Z M 150 161 "/></clipPath><clipPath id="41156cba3f"><path d="M 226.921875 211.078125 L 178.226562 246.382812 L 136.691406 189.09375 L 185.386719 153.789062 Z M 226.921875 211.078125 "/></clipPath><clipPath id="4bce59c9e1"><path d="M 226.921875 211.078125 L 178.226562 246.382812 L 136.691406 189.09375 L 185.386719 153.789062 Z M 226.921875 211.078125 "/></clipPath><clipPath id="c5601dd61f"><rect x="0" width="349" y="0" height="327"/></clipPath></defs><g id="5d5e9314fa"><g transform="matrix(1,0,0,1,12,24)"><g clip-path="url(#c5601dd61f)"><g clip-rule="nonzero" clip-path="url(#7b87c575cb)"><path style=" stroke:none;fill-rule:nonzero;fill:#164b77;fill-opacity:1;" d="M 335.238281 297.234375 L 307.472656 297.234375 L 307.472656 239.789062 L 307.441406 239.789062 L 307.441406 166.9375 C 311.800781 166.535156 315.984375 165.535156 319.914062 164.011719 C 342.632812 155.210938 353.140625 128.9375 343.433594 106.589844 L 307.230469 23.242188 C 301.40625 9.835938 288.183594 1.164062 273.566406 1.164062 L 77.21875 1.164062 C 62.601562 1.164062 49.378906 9.835938 43.554688 23.238281 L 7.332031 106.605469 C -2.15625 128.449219 7.617188 154.203125 29.550781 163.484375 C 33.839844 165.296875 38.464844 166.480469 43.300781 166.925781 L 43.300781 297.234375 L 14.03125 297.234375 C 6.890625 297.234375 1.101562 303.625 1.101562 311.511719 C 1.101562 319.394531 6.890625 325.789062 14.03125 325.789062 L 335.238281 325.789062 C 342.378906 325.789062 348.164062 319.394531 348.164062 311.511719 C 348.164062 303.625 342.378906 297.234375 335.238281 297.234375 Z M 90.230469 139.210938 C 97.386719 155.640625 113.761719 167.136719 132.828125 167.136719 C 151.878906 167.136719 168.238281 155.664062 175.40625 139.253906 C 182.570312 155.664062 198.933594 167.136719 217.984375 167.136719 C 237.03125 167.136719 253.394531 155.664062 260.558594 139.253906 C 264.757812 148.867188 272.113281 156.78125 281.3125 161.691406 L 281.3125 226.726562 C 281.3125 233.941406 275.464844 239.789062 268.25 239.789062 L 82.492188 239.789062 C 75.277344 239.789062 69.425781 233.941406 69.425781 226.726562 L 69.425781 161.707031 C 78.65625 156.789062 86.03125 148.851562 90.230469 139.210938 Z M 90.230469 139.210938 "/></g><g clip-rule="nonzero" clip-path="url(#c4e6b7315b)"><g clip-rule="nonzero" clip-path="url(#41156cba3f)"><g clip-rule="nonzero" clip-path="url(#4bce59c9e1)"><path style=" stroke:none;fill-rule:nonzero;fill:#164b77;fill-opacity:1;" d="M 201.136719 229.507812 C 192.308594 227.574219 184.597656 222.546875 179.289062 215.222656 C 167.351562 198.753906 171.144531 175.566406 187.746094 163.53125 C 188.769531 162.789062 189.839844 162.089844 190.945312 161.453125 C 181.847656 160.324219 172.8125 162.652344 165.320312 168.082031 C 149.238281 179.742188 145.5625 202.203125 157.121094 218.148438 C 167.085938 231.894531 185.742188 236.609375 201.136719 229.507812 Z M 201.136719 229.507812 "/></g></g></g></g></g></g></svg>